<?xml version="1.0" encoding="UTF-8"?><!-- Generator: Adobe Illustrator 16.0.0, SVG Export Plug-In . SVG Version: 6.00 Build 0)  --><svg xmlns="http://www.w3.org/2000/svg" enable-background="new 0 0 488.453 445.625" height="445.62px" id="moon" version="1.1" viewBox="0 0 488.453 445.625" width="488.45px" x="0px" xml:space="preserve" y="0px">
<g id="change1_5_">
	<g>
		<path d="m472.05 397c-120.37 0-217.94-97.578-217.94-217.95 0-71.113 34.065-134.26 86.762-174.04-114.96 6.042-206.32 101.17-206.32 217.63 0 120.37 97.577 217.94 217.94 217.94 49.253 0 94.685-16.347 131.18-43.898-3.84 0.21-7.71 0.32-11.62 0.32z" fill="#fff"/>
	</g>
</g>
<g id="change2_1_">
	<path d="m472.05 392c-45.256-0.144-89.132-14.506-125.77-41.059-35.549-25.766-62.408-63.027-76.328-104.58-13.765-41.095-14.265-86-2.202-127.56 12.591-43.383 39.729-82.172 75.64-109.48 3.566-2.711 2.979-9.624-2.523-9.317-45.096 2.514-88.603 18.432-124.4 46.034-35.094 27.062-61.408 64.222-75.569 106.19-29.267 86.736-0.069 185.12 70.433 242.95 34.589 28.372 77.136 45.446 121.62 49.539 53.822 4.951 108.53-10.721 151.94-42.75 0.431-0.322 0.861-0.646 1.292-0.968 3.622-2.713 2.942-9.582-2.523-9.317-3.86 0.2-7.73 0.3-11.61 0.32-6.447 0.029-6.45 10.029 0 10 3.879-0.018 7.75-0.123 11.624-0.311-0.841-3.105-1.683-6.212-2.523-9.317-43.733 32.762-97.977 47.639-152.32 41.947-44.236-4.634-86.428-24.143-119.35-53.885-32.857-29.686-55.587-69.361-65.129-112.54-9.887-44.742-4.531-92.6 14.575-134.2 32.7-71.167 103.86-119.34 181.95-123.69-0.841-3.106-1.683-6.211-2.523-9.317-39.891 30.327-68.915 72.86-81.878 121.34-12.366 46.248-9.022 96.413 8.926 140.73 16.334 40.331 44.477 74.984 80.115 99.849 36.921 25.759 81.622 39.243 126.54 39.386 6.44 0.02 6.44-9.98-0.01-10z" fill="#262633"/>
</g>
<g fill="#686868" id="change3_1_">
	<path d="m174.68 134.13c-1.367 0-2.717 0.07-4.051 0.197-11.859-22.248-32.787-37.039-56.643-37.039-25.902 0-48.352 17.433-59.488 42.922-9.415 1.392-17.661 6.353-23.334 13.461-2.26-0.705-4.663-1.085-7.154-1.085-13.264 0-24.014 10.75-24.014 24.02h217.14c0.01-23.46-19.01-42.47-42.46-42.47z" fill="inherit"/>
	<path d="m460.36 301.74c-4.039 0-7.763 1.317-10.797 3.526-4.397-5.562-11.19-9.142-18.829-9.142-2.492 0-4.895 0.38-7.153 1.084-5.673-7.106-13.92-12.068-23.334-13.459-11.137-25.491-33.588-42.924-59.49-42.924-23.856 0-44.783 14.79-56.643 37.039-1.334-0.126-2.685-0.197-4.052-0.197-23.453 0-42.465 19.015-42.465 42.467h241.16c0.01-10.17-8.23-18.4-18.39-18.4z" fill="inherit"/>
</g>
</svg>